<svg width="40" height="26" viewBox="0 0 40 26" fill="none" xmlns="http://www.w3.org/2000/svg" xmlns:xlink="http://www.w3.org/1999/xlink">
<path d="M38.763,16.333L38.771,16.333L38.754,16.333L38.763,16.333ZM37.588,15.432C37.754,15.983 38.234,16.33 38.763,16.333C38.879,16.333 39.008,16.299 39.138,16.264C39.788,16.056 40.154,15.311 39.938,14.635C39.888,14.479 34.888,-1 20.001,-1C5.114,-1 0.112,14.479 0.062,14.635C-0.154,15.311 0.212,16.039 0.862,16.264C1.529,16.489 2.229,16.108 2.446,15.432L2.451,15.423C2.672,14.747 7.012,1.6 20.017,1.6C33.088,1.6 37.404,14.86 37.588,15.432ZM14.167,16.333C14.167,14.724 14.782,13.181 15.876,12.044C16.97,10.906 18.454,10.267 20.001,10.267C21.548,10.267 23.032,10.906 24.126,12.044C25.22,13.181 25.834,14.724 25.834,16.333C25.834,17.942 25.22,19.485 24.126,20.623C23.032,21.761 21.548,22.4 20.001,22.4C18.454,22.4 16.97,21.761 15.876,20.623C14.782,19.485 14.167,17.942 14.167,16.333ZM20.001,7.667C17.791,7.667 15.671,8.58 14.108,10.205C12.545,11.83 11.667,14.035 11.667,16.333C11.667,18.632 12.545,20.836 14.108,22.462C15.671,24.087 17.791,25 20.001,25C22.211,25 24.331,24.087 25.893,22.462C27.456,20.836 28.334,18.632 28.334,16.333C28.334,14.035 27.456,11.83 25.893,10.205C24.331,8.58 22.211,7.667 20.001,7.667Z" fill="#000000"/>
</svg>
