<svg viewBox="0 0 40 32" fill="none" xmlns="http://www.w3.org/2000/svg" xmlns:xlink="http://www.w3.org/1999/xlink">
<path d="M2.136,0.293C2.02,0.2 1.882,0.127 1.73,0.076C1.579,0.026 1.416,0 1.251,0C1.087,0 0.924,0.026 0.773,0.076C0.621,0.127 0.483,0.2 0.367,0.293C0.25,0.386 0.158,0.497 0.095,0.618C0.032,0.74 0,0.87 0,1.001C0,1.133 0.032,1.263 0.095,1.384C0.158,1.506 0.25,1.616 0.367,1.709L9.116,8.705C4.783,11.069 1.767,14.687 0.702,18.796C0.668,18.924 0.667,19.057 0.697,19.186C0.728,19.315 0.79,19.438 0.88,19.548C0.97,19.658 1.086,19.753 1.222,19.827C1.358,19.901 1.511,19.953 1.671,19.98C1.832,20.006 1.998,20.008 2.16,19.983C2.321,19.959 2.475,19.909 2.612,19.837C2.75,19.765 2.868,19.672 2.961,19.563C3.053,19.455 3.118,19.332 3.151,19.204C3.63,17.357 4.563,15.606 5.896,14.051C7.23,12.496 8.937,11.17 10.918,10.148L14.883,13.32C13.855,13.913 13,14.678 12.378,15.561C11.756,16.444 11.381,17.425 11.279,18.436C11.177,19.447 11.351,20.463 11.789,21.414C12.227,22.366 12.917,23.23 13.814,23.947C14.71,24.664 15.79,25.217 16.979,25.567C18.169,25.917 19.439,26.056 20.702,25.974C21.966,25.893 23.192,25.593 24.296,25.095C25.4,24.598 26.356,23.914 27.097,23.091L37.864,31.707C38.098,31.895 38.417,32 38.749,32C39.08,32 39.399,31.895 39.633,31.707C39.868,31.519 40,31.264 40,30.999C40,30.733 39.868,30.479 39.633,30.291L2.136,0.293ZM25.297,21.652C24.798,22.288 24.126,22.827 23.331,23.227C22.536,23.628 21.638,23.88 20.705,23.964C19.771,24.049 18.826,23.964 17.939,23.716C17.052,23.468 16.247,23.063 15.583,22.532C14.918,22 14.412,21.356 14.102,20.646C13.792,19.937 13.686,19.181 13.792,18.434C13.898,17.687 14.212,16.969 14.713,16.333C15.213,15.697 15.887,15.159 16.683,14.76L25.297,21.652ZM20.31,12.004L28.744,18.752C28.666,16.982 27.752,15.302 26.187,14.05C24.622,12.798 22.522,12.067 20.31,12.004ZM20,8.001C18.575,8.001 17.178,8.149 15.835,8.427L13.828,6.821C15.816,6.28 17.901,6.003 20,6.001C29.232,6.001 37.354,11.346 39.298,18.796C39.366,19.056 39.302,19.326 39.12,19.548C38.938,19.77 38.653,19.926 38.329,19.98C38.004,20.034 37.665,19.982 37.388,19.837C37.11,19.691 36.916,19.464 36.849,19.204C35.144,12.654 28.017,8.001 20,8.001Z" fill="#5A91C4"/>
</svg>
